<svg width="53" height="60" viewBox="0 0 53 60" fill="none" xmlns="http://www.w3.org/2000/svg">
<rect width="53" height="60" fill="black"/>
<path d="M26.5 15.6924C29.1039 15.6924 31.6708 16.3331 33.9908 17.562C36.3109 18.791 38.3183 20.5734 39.8488 22.7635L30.5046 29.8214C30.0455 29.1644 29.4433 28.6297 28.7473 28.261C28.0512 27.8923 27.2812 27.7001 26.5 27.7001L26.5 15.6924Z" fill="url(#paint0_linear_714_463)"/>
<path d="M41.8519 26.5593C43.39 30.6188 43.3824 35.135 41.8307 39.1888L31.0992 34.749C31.5647 33.5329 31.567 32.178 31.1056 30.9602L41.8519 26.5593Z" fill="url(#paint1_linear_714_463)"/>
<path d="M26.5 50.0001C29.1039 50.0001 31.6708 49.3594 33.9908 48.1304C36.3109 46.9014 38.3183 45.1191 39.8488 42.929L30.5046 35.8711C30.0455 36.5281 29.4433 37.0628 28.7473 37.4315C28.0512 37.8002 27.2812 37.9924 26.5 37.9924L26.5 50.0001Z" fill="url(#paint2_linear_714_463)"/>
<path d="M10 15C10 12.2386 12.2386 10 15 10H23.0224V22.3077H10V15Z" fill="url(#paint3_linear_714_463)"/>
<rect x="10" y="25.3845" width="13.0224" height="9.23077" fill="url(#paint4_linear_714_463)"/>
<path d="M10 37.6924H23.0224V50.0001H15C12.2386 50.0001 10 47.7615 10 45.0001V37.6924Z" fill="url(#paint5_linear_714_463)"/>
<defs>
<linearGradient id="paint0_linear_714_463" x1="26.5" y1="15.6924" x2="36.7898" y2="29.0327" gradientUnits="userSpaceOnUse">
<stop stop-color="#BAD994"/>
<stop offset="1" stop-color="#A9B82F"/>
</linearGradient>
<linearGradient id="paint1_linear_714_463" x1="42.4081" y1="31.2308" x2="40.494" y2="41.05" gradientUnits="userSpaceOnUse">
<stop stop-color="#FBC154"/>
<stop offset="1" stop-color="#BA2539"/>
</linearGradient>
<linearGradient id="paint2_linear_714_463" x1="42.4081" y1="31.2308" x2="40.494" y2="41.05" gradientUnits="userSpaceOnUse">
<stop stop-color="#FBC154"/>
<stop offset="1" stop-color="#BA2539"/>
</linearGradient>
<linearGradient id="paint3_linear_714_463" x1="16.5112" y1="10" x2="16.5112" y2="22.3077" gradientUnits="userSpaceOnUse">
<stop stop-color="#F9D870"/>
<stop offset="1" stop-color="#F49C32"/>
</linearGradient>
<linearGradient id="paint4_linear_714_463" x1="16.5112" y1="25.3845" x2="16.5112" y2="34.6153" gradientUnits="userSpaceOnUse">
<stop stop-color="#F3B04A"/>
<stop offset="1" stop-color="#F06A2F"/>
</linearGradient>
<linearGradient id="paint5_linear_714_463" x1="10" y1="37.6924" x2="15.3433" y2="49.6627" gradientUnits="userSpaceOnUse">
<stop stop-color="#F5733B"/>
<stop offset="1" stop-color="#A8232A"/>
</linearGradient>
</defs>
</svg>
